<svg height="512" viewBox="0 0 58 58" width="512" xmlns="http://www.w3.org/2000/svg"><g id="Page-1" fill="none" fill-rule="evenodd"><g id="020---Catching-Ball" fill-rule="nonzero"><path id="Shape" d="m21.03 39.21c-.7343853-.9618666-1.7310048-1.6911003-2.87-2.1-2.2184408-.9390852-4.2635193-2.243879-6.05-3.86-.9691286-.814401-2.29729242-1.0541555-3.49-.63-.63231539.2472191-1.21494564.6062819-1.72 1.06-.17297555-.296446-.32662855-.603752-.46-.92l-2.24-5.22c-.34000689-.808503-1.13291857-1.333166-2.01-1.33-1.20722849.005475-2.18452496.9827715-2.19 2.19-.00094415.3143373.0673392.6250265.2.91l3.92 8.62c.47674653 1.05958 1.14455031 2.0223022 1.97 2.84l7.67 7.67c.3492486-.2870063.7879601-.4426781 1.24-.44h7c.3512598.0006233.6961604.0937465 1 .27v-3.13c.0313503-2.1423418-.6629487-4.2322875-1.97-5.93z" fill="#fdd7ad"/><path id="Shape" d="m47 18c.0038037 2.7646573-.6328351 5.4926202-1.86 7.97-.290816.6014347-.621555 1.1827335-.99 1.74-2.6377445 4.1294125-6.8512945 6.9986738-11.66 7.94v.01c-.8512669.1680657-1.7134684.2750054-2.58.32-.3.01-.61.02-.91.02-4.430497.009412-8.7067375-1.6262499-12-4.59-.5613106-.4979741-1.0891255-1.0324702-1.58-1.6-.2-.22-.38-.44-.56-.67-2.2505213-2.8530512-3.579403-6.3234903-3.81-9.95-.0368315-.3955624-.0535197-.7927422-.05-1.19 0-.36.01-.72.03-1.08.3445576-5.7879051 3.4615441-11.0536386 8.37-14.14.22-.14.44-.28.67-.41.29-.16.58-.32.87-.46.18-.09.36-.18.54-.26 2.2045639-1.01709 4.592994-1.5750708 7.02-1.64.17-.01.33-.01.5-.01.26 0 .52.01.78.02.3979214.01009539.7950865.04013309 1.19.09.2.02.41.05.61.08 3.1272579.44631131 6.0806313 1.71253569 8.56 3.67.26.2.51.41.76.63.5012479.44791877.9785748.92190764 1.43 1.42 2.1193259 2.32854776 3.5885278 5.1738332 4.26 8.25.1512377.7097273.2614206 1.4275856.33 2.15.05.56.08 1.12.08 1.69z" fill="#e57e25"/><path id="Shape" d="m44 15c0 .22 0 .44-.01.66-.0919806 2.5780542-.7401123 5.1057681-1.9 7.41-.3284963.6619191-.7027368 1.3001328-1.12 1.91-1.7064522 2.5698137-4.0491149 4.6540944-6.8 6.05-.762548.3977543-1.5549496.7354444-2.37 1.01-4.5639904 1.5536019-9.5604603 1.211378-13.87-.95-.7836392-.3972077-1.5387846-.8482901-2.26-1.35-.27-.19-.55-.39-.81-.6-2.2505213-2.8530512-3.579403-6.3234903-3.81-9.95-.0368315-.3955624-.0535197-.7927422-.05-1.19 0-.36.01-.72.03-1.08.3445576-5.7879051 3.4615441-11.0536386 8.37-14.14.6645778-.42734465 1.3598009-.805038 2.08-1.13 2.2045639-1.01709 4.592994-1.5750708 7.02-1.64.17-.01.33-.01.5-.01.8635984-.0028798 1.7261401.06064072 2.58.19 3.1272579.44631131 6.0806313 1.71253569 8.56 3.67.21.27.42.55.61.83.4286583.60324385.8162019 1.23467267 1.16 1.89 1.1578706 2.17679179 1.8492437 4.5710543 2.03 7.03.04.46.06.92.06 1.39z" fill="#f29c1f"/><path id="Shape" d="m43.41 24.75c.5001454.5055806 1.0858508.9186214 1.73 1.22-.290816.6014347-.621555 1.1827335-.99 1.74-.7944955-.3856948-1.5180332-.9029904-2.14-1.53-.3777289-.3719863-.7254776-.7732348-1.04-1.2-2.0332706-2.9670859-3.092281-6.4936255-3.03-10.09-.82-.07-1.65-.12-2.49-.16.09 1.25.14 2.59.14 3.96.0437814 4.1564896-.4332656 8.3020949-1.42 12.34-.354579 1.417243-.83654 2.7995339-1.44 4.13-.08.17-.16.33-.24.49v.01c-.8512669.1680657-1.7134684.2750054-2.58.32.4091437-.5131043.7487454-1.0779862 1.01-1.68.3401812-.7342426.6340887-1.4890505.88-2.26 1.2487185-4.338014 1.8518543-8.8362612 1.79-13.35 0-1.38-.06-2.72-.16-4.01-.24-.01-.47-.02-.71-.02h-.13c-.88 0-1.75.02-2.62.06.02.28.03.55.03.8 0 6.8-4.86 12.83-12.07 15.57-.3.12-.61.22-.93.32-.5613106-.4979741-1.0891255-1.0324702-1.58-1.6.08-.02.17-.05.25-.07 7.29-2.13 12.33-7.8 12.33-14.22 0-.23-.02-.46-.04-.69-1.09.08-2.17.18-3.23.31-5.65.71-10.48 2.17-13.68 4.05-.0368315-.3955624-.0535197-.7927422-.05-1.19 0-.36.01-.72.03-1.08 4.2349634-2.01423 8.7844439-3.2860551 13.45-3.76 1.05-.13 2.13-.23 3.22-.31-.93-4.18-3.91-7.79-8.3-10.07.22-.14.44-.28.67-.41.29-.16.58-.32.87-.46.18-.09.36-.18.54-.26 4.1990161 2.35159261 7.1962682 6.38187829 8.24 11.08.95-.04 1.91-.07 2.87-.07h.67c-.79-7.34-2.93-11.85-4.76-12.65.17-.01.33-.01.5-.01.26 0 .52.01.78.02.3979214.01009539.7950865.04013309 1.19.09.2.02.41.05.61.08 2.03 2.82 3.21 7.81 3.7 12.52.92.03 1.84.08 2.75.16.1892512-2.9149872 1.1259989-5.7321179 2.72-8.18.05-.07.1-.14.15-.2.5012479.44791877.9785748.92190764 1.43 1.42-.1515846.2158586-.2917761.43949738-.42.67-1.0958082 1.99304062-1.7441807 4.2009194-1.9 6.47l.55.06c1.16.14 2.29.3 3.38.5.91.17 1.79.35 2.65.55.1512377.7097273.2614206 1.4275856.33 2.15-.94-.25-1.92-.46-2.93-.65-1.18-.23-2.4-.41-3.66-.56-.13-.02-.26-.02-.38-.04.0018341 2.8110363.7396314 5.5726046 2.14 8.01.3691543.6122101.8125106 1.1764817 1.32 1.68z" fill="#d25627"/><path id="Shape" d="m24 50v6c-.0032948 1.1032019-.8967981 1.9967052-2 2h-7c-1.1032019-.0032948-1.9967052-.8967981-2-2v-6c.0008877-.6089893.2809923-1.1839409.76-1.56.3492486-.2870063.7879601-.4426781 1.24-.44h7c1.1045695 0 2 .8954305 2 2z" fill="#e64c3c"/><path id="Shape" d="m15.15 41.45c-.3900375.3877236-1.0199625.3877236-1.41 0l-4.57-4.57c-.93558596-.927742-1.70358199-2.0103795-2.27-3.2.50521128-.4535082 1.08780155-.8125464 1.72-1.06.46999389 1.0609008 1.13482342 2.0242253 1.96 2.84l4.57 4.57c.3899779.3930079.3899779 1.0269921 0 1.42z" fill="#f9c795"/><path id="Shape" d="m36.97 39.21c.7343853-.9618666 1.7310048-1.6911003 2.87-2.1 2.2184408-.9390852 4.2635193-2.243879 6.05-3.86.9691286-.814401 2.2972924-1.0541555 3.49-.63.6323154.2472191 1.2149456.6062819 1.72 1.06.1729755-.296446.3266285-.603752.46-.92l2.24-5.22c.3400069-.808503 1.1329186-1.333166 2.01-1.33 1.2072285.005475 2.184525.9827715 2.19 2.19.0009441.3143373-.0673392.6250265-.2.91l-3.92 8.62c-.4767465 1.05958-1.1445503 2.0223022-1.97 2.84l-7.67 7.67c-.3492486-.2870063-.7879601-.4426781-1.24-.44h-7c-.3512598.0006233-.6961604.0937465-1 .27v-3.13c-.0313503-2.1423418.6629487-4.2322875 1.97-5.93z" fill="#fdd7ad"/><path id="Shape" d="m34 50v6c.0032948 1.1032019.8967981 1.9967052 2 2h7c1.1032019-.0032948 1.9967052-.8967981 2-2v-6c-.0008877-.6089893-.2809923-1.1839409-.76-1.56-.3492486-.2870063-.7879601-.4426781-1.24-.44h-7c-1.1045695 0-2 .8954305-2 2z" fill="#e64c3c"/><path id="Shape" d="m42.85 41.45c.3900375.3877236 1.0199625.3877236 1.41 0l4.57-4.57c.935586-.927742 1.703582-2.0103795 2.27-3.2-.5052113-.4535082-1.0878016-.8125464-1.72-1.06-.4699939 1.0609008-1.1348234 2.0242253-1.96 2.84l-4.57 4.57c-.3899779.3930079-.3899779 1.0269921 0 1.42z" fill="#f9c795"/></g></g></svg>