<svg height="512" viewBox="0 0 56 58" width="512" xmlns="http://www.w3.org/2000/svg"><g id="Page-1" fill="none" fill-rule="evenodd"><g id="013---Ball-and-Hoop" fill-rule="nonzero"><path id="Shape" d="m53.5 27.01h-3.63l-7.24 6.98-2.87-2.78 4.35-4.2h-2.88l-2.91 2.81-2.88-2.78.03-.03h-2.93l.02.02-2.88 2.78-2.9-2.8h-2.88l4.34 4.19-2.88 2.78-7.22-6.97h-3.14l-.37.33c4.39 5.98 5.35 20.98 5.41 28.37-.0063462.5995805.3487536 1.1440668.9 1.38.1663067.0755675.347357.113144.53.11.3857538-.0108902.751901-.1724258 1.02-.45l2.9-3.24 3.04 3.18c.3322329.3233426.7764125.5060294 1.24.51.4847777-.0009107.9491368-.1952936 1.29-.54l3.04-3.18 3.07 3.21c.3301584.3264882.7756736.5097242 1.24.51.481737-.0014627.9427848-.1959672 1.28-.54l3.02-3.15 2.95 3.3c.2557108.2532454.6001241.396751.96.4.185279-.002724.3684192-.0400304.54-.11.5473376-.2459204.8995896-.7899541.9-1.39.06-7.71.87-22.26 5.46-28.44.09-.12.16-.21.21-.27-.0428082.0082948-.0864268.0116501-.13.01zm-10.86 9.75 2.88 2.78-2.88 2.78-2.88-2.78zm-11.52 2.78 2.88-2.78 2.88 2.78-2.88 2.78zm1.44 4.17-2.88 2.77-2.88-2.77 2.89-2.78zm5.76-2.78 2.88 2.78-2.88 2.77-2.88-2.78zm2.88-5.56-2.88 2.78-2.88-2.78 2.88-2.78zm-7.2-6.95 2.88 2.78-2.88 2.79-2.88-2.78zm-4.32 4.18 2.88 2.77-2.88 2.78-2.87-2.77zm-4.31 4.17 2.87 2.77-2.88 2.78-2.87-2.77zm-4.91.82c-.49876-2.6432455-1.2522755-5.23199-2.25-7.73l5.71 5.51-2.88 2.78zm.58 3.36.01-.01 2.87 2.77-2.3 2.22c-.15-1.74-.34-3.4-.58-4.98zm.98 13.33c-.02-1.46-.06-2.92-.12-4.2l2.08 2.01zm3.35-3.63-2.88-2.77 2.87-2.78 2.88 2.77zm4.31 4.45-2.91-3.04 2.91-2.8 2.91 2.8zm1.44-7.23 2.88-2.78 2.88 2.78-2.88 2.78zm7.2 7.23-2.91-3.04 2.91-2.8 2.91 2.8zm1.44-7.23 2.88-2.77 2.87 2.77-2.87 2.78zm6.22 6.41-1.96-2.19 2.08-2c-.06 1.28-.1 2.73-.12 4.19zm.4-8.35-2.3-2.22 2.87-2.77h.01c-.23 1.58-.43 3.25-.58 4.99zm1.16-8.34-.59.58-2.88-2.79 5.72-5.52c-.9977245 2.49801-1.75124 5.0867545-2.25 7.73z" fill="#a56a43"/><path id="Shape" d="m49 15c.0062981 2.2488258-.5034453 4.4691173-1.49 6.49-.14.3-.29.59-.46.88-.11.21-.24.42-.37.63h-25.36c-1.3062198-2.0482882-2.0860029-4.3876375-2.27-6.81-.03-.39-.05-.79-.05-1.19 0-.37.01-.73.04-1.09.3383326-4.6795671 2.8520112-8.92949786 6.79-11.48.32-.22.66-.42 1-.61s.71-.37 1.08-.53c1.6944471-.75655589 3.5161652-1.18739054 5.37-1.27.24-.01.48-.02.72-.02.31 0 .61.01.91.03.5098419.02919082 1.0174419.08930135 1.52.18 2.1473679.33199802 4.191761 1.14565282 5.98 2.38.4748666.32118523.9290939.67187541 1.36 1.05.2585434.21339208.5055587.44037911.74.68.24.24.48.48.7.74 1.6697203 1.86404704 2.8395075 4.1210483 3.4 6.56.171417.7025.2818275 1.418495.33 2.14.04.41.06.82.06 1.24z" fill="#e57e25"/><path id="Shape" d="m46 12.5c0 .21 0 .42-.02.63-.0688538 1.8878971-.4893843 3.7463702-1.24 5.48-.2999839.7133059-.6613411 1.3992155-1.08 2.05-.5144986.8343382-1.1071659 1.6178643-1.77 2.34h-20.57c-1.3062198-2.0482882-2.0860029-4.3876375-2.27-6.81-.008317-.0663239-.0116596-.1331772-.01-.2-.03-.32-.04-.66-.04-.99 0-.36.01-.71.04-1.06v-.03c.3383326-4.6795671 2.8520112-8.92949786 6.79-11.48.09-.06.18-.12.28-.18.24-.16.48-.3.72-.43.2461402-.14056939.4998604-.26742946.76-.38.11-.06.21-.1.32-.15 1.6944471-.75655589 3.5161652-1.18739054 5.37-1.27h.01c.24-.01.47-.02.71-.02.31 0 .61.01.91.03.33.02.66.05.98.1.18.02.36.05.54.08 2.1473679.33199802 4.191761 1.14565282 5.98 2.38.3887104.46824477.749342.95910448 1.08 1.47 1.3863963 2.10420571 2.2282802 4.51989706 2.45 7.03.04.4733333.06.9433333.06 1.41z" fill="#f29c1f"/><path id="Shape" d="m46.13 20.51c.3987586.4053152.8659241.7370704 1.38.98-.14.3-.29.59-.46.88-.11.21-.24.42-.37.63h-.57c-.5041229-.2918418-.9680345-.6481797-1.38-1.06-.3956989-.3924608-.7539179-.8209845-1.07-1.28-1.5604106-2.4122934-2.3839873-5.2270494-2.37-8.1-.58-.05-1.16-.08-1.74-.11.06 1.03.11 2.08.11 3.12.0086252 2.4883028-.1853489 4.9731777-.58 7.43h-2.03c.4156282-2.4546411.6197111-4.9404387.61-7.43 0-1.04-.05-2.11-.12-3.18-.15 0-.29-.01-.44-.01h-.11c-.67 0-1.34.04-2.02.06.01.17.03.33.03.49-.0543213 3.9183796-1.8502427 7.6091812-4.9 10.07h-3.46c3.98-2.33 6.36-6.02 6.36-10.07 0-.13-.01-.25-.02-.38-.85.06-1.69.13-2.52.24-3.9885716.3788875-7.8645995 1.5338826-11.41 3.4-.008317-.0663239-.0116596-.1331772-.01-.2-.03-.32-.04-.66-.04-.99 0-.36.01-.71.04-1.06v-.03c3.5224238-1.6561589 7.2985224-2.7075167 11.17-3.11.82-.1 1.66-.17 2.5-.23-.9814759-3.59475686-3.4990015-6.57334092-6.88-8.14.09-.06.18-.12.28-.18.24-.16.48-.3.72-.43.2461402-.14056939.4998604-.26742946.76-.38.11-.06.21-.1.32-.15 3.4564491 1.96499172 5.9330958 5.28652662 6.83 9.16.75-.03 1.5-.07 2.25-.07h.11c.09 0 .18.01.28.01-.64-5.67-2.22-9.18-3.58-10.13-.1511882-.11504492-.324987-.1968326-.51-.24.24-.01.47-.02.71-.02.31 0 .61.01.91.03.33.02.66.05.98.1.18.02.36.05.54.08 1.43 2.15 2.49 5.75 2.96 10.23.67.03 1.32.07 1.98.12.1670535-2.30692877.894789-4.53819335 2.12-6.5.0851762-.14526974.1786649-.28550288.28-.42.2585434.21339208.5055587.44037911.74.68.24.24.48.48.7.74-.2259687.32920468-.4233553.67714034-.59 1.04-.701611 1.45254487-1.1287822 3.02222932-1.26 4.63l.3.03c.78.09 1.54.2 2.28.33.92.15 1.81.33 2.67.53.171417.7025.2818275 1.418495.33 2.14-.94-.24-1.93-.46-2.96-.63-.83-.15-1.68-.28-2.56-.38-.04-.01-.08-.01-.12-.02.0394107 2.0423528.5312153 4.0505551 1.44 5.88.3667769.6986168.8352141 1.3389266 1.39 1.9z" fill="#d25627"/><g fill="#805333"><path id="Shape" d="m52.92 28c-.5930007.9507321-1.0952148 1.9551602-1.5 3h-2.07c.14-.41.29-.78.44-1.14l-1.18 1.14h-2.88l3.11-3z"/><path id="Shape" d="m43.08 28-3.1 3h-3.31l-2.67-2.58-2.66 2.58h-3.31l-3.1-3h2.88l1.87 1.81 1.88-1.81h4.87l1.89 1.82 1.88-1.82z"/><path id="Shape" d="m19.39 31-1.18-1.14c.15.36.3.73.44 1.14h-2.11c-.3909073-1.0455829-.8832564-2.0503769-1.47-3h4.1l3.1 3z"/></g><path id="Shape" d="m56 25.5c.0021341.6636932-.2605727 1.3008186-.729877 1.770123-.4693044.4693043-1.1064298.7320111-1.770123.729877l-40.5.0000129v-5.0000129h40.5c1.3807119 0 2.5 1.1192881 2.5 2.5z" fill="#e64c3c"/><path id="Shape" d="m15 23v5l-9 8-1-7 1-6z" fill="#bdc3c7"/><circle id="Oval" cx="10" cy="27" fill="#7f8c8d" r="1"/><path id="Shape" d="m6 3v34c0 1.6568542-1.34314575 3-3 3s-3-1.3431458-3-3v-34c0-1.65685425 1.34314575-3 3-3s3 1.34314575 3 3z" fill="#f29c1f"/></g></g></svg>