<svg height="512" viewBox="0 0 59 59" width="512" xmlns="http://www.w3.org/2000/svg"><g id="Page-1" fill="none" fill-rule="evenodd"><g id="033---Ball" fill-rule="nonzero" transform="translate(0 -1)"><path id="Shape" d="m55.01 36.28c-.4861383.7162528-1.0172038 1.4009599-1.59 2.05-.32.37-.66.73-1.01 1.08-3.970943 3.9917677-9.3039905 6.3350224-14.93 6.56-.7561957.041674-1.5142008.0383348-2.27-.01-5.0941159-.2809898-9.9389041-2.2958289-13.73-5.71-.3-.27-.6-.55-.89-.84-.17-.17-.33-.34-.49-.51-.08-.09-.16-.17-.24-.26-5.0206552-5.5067541-6.9835763-13.1449147-5.24-20.39.1816566-.7640054.4019394-1.5183073.66-2.26 1.0885108-3.068624 2.8322481-5.8633811 5.11-8.19.06-.07.13-.14.2-.21.6588581-.6618547 1.3603596-1.27984416 2.1-1.85 3.6237237-2.82631859 8.0302981-4.46743584 12.62-4.7.6756797-.04670576 1.3535313-.0533841 2.03-.02 3.7214417.13202315 7.3511047 1.19067486 10.56 3.08.33.2.66.4.98.61.6049501.39987573 1.1890468.83043845 1.75 1.29.6237953.49487863 1.2181415 1.02578339 1.78 1.59 2.5109749 2.4984004 4.3896492 5.5598168 5.48 8.93.21.63.39 1.28.54 1.92 1.421586 6.1629702.179974 12.6396831-3.42 17.84z" fill="#e57e25"/><path id="Shape" d="m47.41 35.41c-7.2461714 7.2471835-18.4741958 8.6820354-27.31 3.49-7.6568641-8.1571977-8.1571919-20.7010227-1.1743408-29.44214578 6.9828512-8.74112306 19.3273679-11.02383663 28.9743408-5.35785422 8.3229812 8.8548384 8.105993 22.7199427-.49 31.31z" fill="#f29c1f"/><g fill="#d25627"><path id="Shape" d="m58.43 18.44c-.12.05-.25.09-.38.13-.9373219.2808206-1.9115569.4190339-2.89.41-4.32 0-9.42-2.38-13.53-6.49-.91.78-1.82 1.59-2.72 2.42 1.29 1.12 2.59 2.3 3.88 3.59 5.67 5.67 10.14 12.01 11.94 16.96.1.27.19.55.28.82-.4861383.7162528-1.0172038 1.4009599-1.59 2.05-.1088979-.751987-.3000434-1.4897419-.57-2.2-1.71-4.67-6-10.74-11.48-16.22-1.29-1.3-2.61-2.49-3.91-3.61-.27.26-.54.51-.8.78l-.12.11c-.84.84-1.65 1.71-2.44 2.57.34.29.64.57.91.84 6.29 6.28 7.04 16.4 2.47 25.37-.7561957.041674-1.5142008.0383348-2.27-.01 4.71-8.43 4.25-18.08-1.61-23.95-.24-.24-.52-.49-.83-.76-.97 1.11-1.89 2.22-2.77 3.35-4.35 5.61-7.33 11.15-8.52 15.65-.3-.27-.6-.55-.89-.84-.17-.17-.33-.34-.49-.51-.08-.09-.16-.17-.24-.26 1.9571354-5.5429532 4.8526398-10.7081813 8.56-15.27.87-1.12 1.79-2.22 2.75-3.32-4.57-3.04-10.6-3.63-16.55-1.8.1816566-.7640054.4019394-1.5183073.66-2.26 6.23-1.59 12.47-.73 17.22 2.56.86-.94 1.72-1.86 2.63-2.77l.11-.12c.23-.22.46-.44.68-.66-6.02-4.86-11.86-7.71-15.02-7.3-.1720642.0217718-.3424547.05518171-.51.1.06-.07.13-.14.2-.21.6588581-.6618547 1.3603596-1.27984416 2.1-1.85 3.82.49 9.1 3.31 14.69 7.87.95-.9 1.92-1.76 2.9-2.59-2.5275216-2.81680473-4.244985-6.26555419-4.97-9.98.6756797-.04670576 1.3535313-.0533841 2.03-.02.7108466 3.24932089 2.2547359 6.25783723 4.48 8.73.24-.2.49-.4.73-.6 2.0214076-1.6024464 4.1350347-3.08499051 6.33-4.44.6049501.39987573 1.1890468.83043845 1.75 1.29-2.3839378 1.41711904-4.6691664 2.99406043-6.84 4.72-.2.16-.4.33-.6.49 4.54 4.47 10.26 6.66 14.29 5.45.14-.04.27-.09.41-.14.21.63.39 1.28.54 1.92z"/><path id="Shape" d="m3 48c-.4043959-.0000863-.76893405-.2437275-.92367798-.6173454-.15474393-.373618-.06922994-.8036603.21667798-1.0896546l9-9c.3923789-.3789722 1.0160848-.3735524 1.4018186.0121814s.3911536 1.0094397.0121814 1.4018186l-9 9c-.18749273.1875494-.44180519.2929434-.707.293z"/><path id="Shape" d="m1 60c-.4043959-.0000863-.76893405-.2437275-.92367798-.6173454-.15474393-.373618-.06922994-.8036603.21667798-1.0896546l15-15c.3923789-.3789722 1.0160848-.3735524 1.4018186.0121814s.3911536 1.0094397.0121814 1.4018186l-15 15c-.18749273.1875494-.44180519.2929434-.707.293z"/><path id="Shape" d="m13 58c-.4043959-.0000863-.7689341-.2437275-.923678-.6173454-.1547439-.373618-.0692299-.8036603.216678-1.0896546l8-8c.3923789-.3789722 1.0160848-.3735524 1.4018186.0121814s.3911536 1.0094397.0121814 1.4018186l-8 8c-.1874927.1875494-.4418052.2929434-.707.293z"/></g></g></g></svg>