<svg height="512" viewBox="0 0 58 42" width="512" xmlns="http://www.w3.org/2000/svg"><g id="Page-1" fill="none" fill-rule="evenodd"><g id="002---Flying-Ball" fill-rule="nonzero" transform="translate(0 -1)"><path id="Shape" d="m12 19h-8.831c-1.61495193.0327096-2.98715435-1.1740992-3.161-2.78-.0611516-.8316402.22660076-1.6512096.79422275-2.2620862s1.36389179-.9579354 2.19777725-.9579138h11c.8338855.0000216 1.6301553-.3470372 2.1977772-.9579138.567622-.6108766.8553744-1.430446.7942228-2.2620862-.1738457-1.60590078-1.5460481-2.81270962-3.161-2.78h-.662c-1.6149519.03270962-2.9871543-1.17409922-3.161-2.78-.0611516-.83164021.2266008-1.65120958.7942228-2.26208619.5676219-.61087661 1.3638917-.95793536 2.1977772-.95791381h23.548c4.9783943-.05810586 9.8240157 1.60537967 13.717 4.709 4.8944986 3.99273456 7.7344592 9.97451 7.7344592 16.291s-2.8399606 12.2982654-7.7344592 16.291c-3.8929843 3.1036203-8.7386057 4.7671059-13.717 4.709h-24.548c-1.615127.0331884-2.98760684-1.1738645-3.161-2.78-.0611516-.8316402.22660076-1.6512096.79422275-2.2620862.56762195-.6108766 1.36389175-.9579354 2.19777725-.9579138h.169c.8338855.0000216 1.6301553-.3470372 2.1977772-.9579138.567622-.6108766.8553744-1.430446.7942228-2.2620862-.1739397-1.6070703-1.5479076-2.8142862-3.164-2.78h-4.659c-1.61495193.0327096-2.98715435-1.1740992-3.161-2.78-.0611516-.8316402.22660076-1.6512096.79422275-2.2620862s1.36389179-.9579354 2.19777725-.9579138h5c1.6568542 0 3-1.3431458 3-3s-1.3431458-3-3-3z" fill="#f3d55b"/><path id="Shape" d="m37 41c-10.4934102 0-19-8.5065898-19-19s8.5065898-19 19-19 19 8.5065898 19 19c-.0115735 10.4886126-8.5113874 18.9884265-19 19zm0-35.889c-9.3275371 0-16.889 7.5614629-16.889 16.889s7.5614629 16.889 16.889 16.889 16.889-7.5614629 16.889-16.889c-.0110207-9.3229684-7.5660316-16.87797928-16.889-16.889z" fill="#f5efca"/><path id="Shape" d="m54 22c.0062857 2.5932026-.5857303 5.1529018-1.73 7.48-.294662.5994057-.6252641 1.1804639-.99 1.74-2.9714553 4.6269229-8.0062899 7.5210204-13.5 7.76-.26.01-.52.02-.78.02-4.1505418.008795-8.158955-1.5112693-11.26-4.27-.5761747-.5028378-1.1143135-1.0476615-1.61-1.63-.644137-.7361109-1.2198511-1.5293914-1.72-2.37 0-.0055228-.0044772-.01-.01-.01-1.3701731-2.284133-2.1757961-4.8621266-2.35-7.52-.04-.4-.05-.8-.05-1.2 0-.37.01-.73.04-1.09.3412105-5.4171577 3.2559966-10.3432948 7.84-13.25.6568472-.43159881 1.3493651-.80629449 2.07-1.12 1.7892073-.83010961 3.7132075-1.33143361 5.68-1.48.19-.02.39-.03.58-.04.26-.01.53-.02.79-.02.8200011-.00085884 1.6389292.05930731 2.45.18 2.2332994.31115194 4.3781735 1.08058296 6.3 2.26.8650098.50670379 1.6788216 1.0961313 2.43 1.76.5116959.44007653.9928103.9145087 1.44 1.42 1.9719736 2.174204 3.3436637 4.8245299 3.98 7.69.1512412.7063607.2614258 1.4208916.33 2.14.05.51.07 1.03.07 1.55z" fill="#e57e25"/><path id="Shape" d="m50 18.5c-.0038892 6.5268383-3.8524894 12.4387456-9.8193742 15.0837257s-12.9318942 1.5264924-17.7706258-2.8537257c0-.0055228-.0044772-.01-.01-.01-1.3701731-2.284133-2.1757961-4.8621266-2.35-7.52-.04-.4-.05-.8-.05-1.2 0-.37.01-.73.04-1.09.3412105-5.4171577 3.2559966-10.3432948 7.84-13.25.6568472-.43159881 1.3493651-.80629449 2.07-1.12 1.7892073-.83010961 3.7132075-1.33143361 5.68-1.48.19-.02.39-.03.58-.04.26-.01.53-.02.79-.02.8200011-.00085884 1.6389292.05930731 2.45.18 2.2332994.31115194 4.3781735 1.08058296 6.3 2.26 2.7392041 3.0320562 4.2539094 6.9738541 4.25 11.06z" fill="#f29c1f"/><circle id="Oval" cx="3" cy="4" fill="#f3d55b" r="3"/><path id="Shape" d="m50.65 28.34c.4685703.472533 1.0170158.8584761 1.62 1.14-.294662.5994057-.6252641 1.1804639-.99 1.74-.7518494-.3683295-1.4377372-.8582493-2.03-1.45-2.38-2.34-3.81-6.31-3.86-10.66-.74-.06-1.48-.11-2.24-.14.08 1.17.13 2.42.13 3.7 0 6.2-.99 11.87-2.71 15.56-.07.15-.14.3-.22.44-.8474576.1690349-1.7066554.2726736-2.57.31.408457-.4787093.7391568-1.0186272.98-1.6 1.58-3.38 2.52-8.88 2.52-14.71 0-1.29-.06-2.54-.15-3.76-.2 0-.41-.01-.61-.01h-.13c-.81 0-1.62.04-2.43.07.02.23.04.46.04.69 0 6.84-4.99 12.67-12.26 15.07-.5761747-.5028378-1.1143135-1.0476615-1.61-1.63 6.91-1.95 11.87-7.31 11.87-13.44 0-.2-.02-.39-.03-.58-1.01.07-2.02.15-3 .28-5.31.67-9.88 2.04-12.92 3.84-.04-.4-.05-.8-.05-1.2 0-.37.01-.73.04-1.09 3.9964377-1.8875706 8.2837561-3.0845034 12.68-3.54.98-.12 1.97-.21 2.98-.29-1.0882424-4.1404487-3.9505364-7.58837831-7.82-9.42.6568472-.43159881 1.3493651-.80629449 2.07-1.12 3.9502631 2.21454361 6.7745685 6.0020935 7.77 10.42.89-.03 1.78-.06 2.67-.06h.13c.15 0 .29.01.45.01-.72-6.54-2.57-10.55-4.14-11.62-.1840596-.13491168-.3958518-.22714377-.62-.27.26-.01.53-.02.79-.02.8200011-.00085884 1.6389292.05930731 2.45.18 1.72 2.36 2.97 6.54 3.53 11.79.83.03 1.66.07 2.48.14.1831416-2.8324334 1.122423-5.5639465 2.72-7.91.5116959.44007653.9928103.9145087 1.44 1.42-1.2685841 2.0037491-2.0146536 4.2935294-2.17 6.66.16.02.32.03.48.05 1.9074008.2164671 3.8005974.5436863 5.67.98.1512412.7063607.2614258 1.4208916.33 2.14-2.0516613-.5214325-4.1364999-.9023165-6.24-1.14-.09-.01-.2-.01-.29-.02.09 3.7 1.31 7.14 3.25 9.05z" fill="#d25627"/></g></g></svg>