<svg height="512" viewBox="0 0 58 58" width="512" xmlns="http://www.w3.org/2000/svg"><g id="Page-1" fill="none" fill-rule="evenodd"><g id="007---Event-Calendar" fill-rule="nonzero"><path id="Shape" d="m5 5c-2.76142375 0-5 2.23857625-5 5v45c0 1.6568542 1.34314575 3 3 3h52c1.6568542 0 3-1.3431458 3-3v-45c0-2.76142375-2.2385763-5-5-5z" fill="#bdc3c7"/><path id="Shape" d="m55.574 16v39c.0683233 1.5871826-1.1619022 2.929735-2.749 3h-47.65c-1.5870978-.070265-2.8173233-1.4128174-2.749-3v-39z" fill="#ecf0f1"/><path id="Shape" d="m58 10v6h-58v-6c0-2.76142375 2.23857625-5 5-5v3c0 1.1045695.8954305 2 2 2s2-.8954305 2-2v-3h7v3c0 1.1045695.8954305 2 2 2s2-.8954305 2-2v-3h7v3c0 1.1045695.8954305 2 2 2s2-.8954305 2-2v-3h7v3c0 1.1045695.8954305 2 2 2s2-.8954305 2-2v-3h7v3c0 1.1045695.8954305 2 2 2s2-.8954305 2-2v-3c2.7614237 0 5 2.23857625 5 5z" fill="#c03a2b"/><path id="Shape" d="m50.992 5c2.6433653.12106207 4.6915853 2.35613401 4.582 5v6h-53.148v-6c-.10958526-2.64386599 1.93863467-4.87893793 4.582-5z" fill="#e64c3c"/><g fill="#bdc3c7"><path id="Shape" d="m9 2v6c0 1.1045695-.8954305 2-2 2s-2-.8954305-2-2v-6c.0032948-1.10320187.89679813-1.9967052 2-2 .53059053-.00282307 1.0395388.2101411 1.41.59.3798589.3704612.59282307.87940947.59 1.41z"/><path id="Shape" d="m20 2v6c0 1.1045695-.8954305 2-2 2s-2-.8954305-2-2v-6c.0032948-1.10320187.8967981-1.9967052 2-2 .5305905-.00282307 1.0395388.2101411 1.41.59.3798589.3704612.5928231.87940947.59 1.41z"/><path id="Shape" d="m31 2v6c0 1.1045695-.8954305 2-2 2s-2-.8954305-2-2v-6c.0032948-1.10320187.8967981-1.9967052 2-2 .5305905-.00282307 1.0395388.2101411 1.41.59.3798589.3704612.5928231.87940947.59 1.41z"/><path id="Shape" d="m42 2v6c0 1.1045695-.8954305 2-2 2s-2-.8954305-2-2v-6c.0032948-1.10320187.8967981-1.9967052 2-2 .5305905-.00282307 1.0395388.2101411 1.41.59.3798589.3704612.5928231.87940947.59 1.41z"/><path id="Shape" d="m53 2v6c0 1.1045695-.8954305 2-2 2s-2-.8954305-2-2v-6c.0032948-1.10320187.8967981-1.9967052 2-2 .5305905-.00282307 1.0395388.2101411 1.41.59.3798589.3704612.5928231.87940947.59 1.41z"/><path id="Shape" d="m18 54h-12c-1.1045695 0-2-.8954305-2-2v-30c0-1.1045695.8954305-2 2-2h12c.5522847 0 1 .4477153 1 1s-.4477153 1-1 1h-12v30h12c.5522847 0 1 .4477153 1 1s-.4477153 1-1 1z"/><path id="Shape" d="m52 54h-12c-.5522847 0-1-.4477153-1-1s.4477153-1 1-1h12v-30h-12c-.5522847 0-1-.4477153-1-1s.4477153-1 1-1h12c1.1045695 0 2 .8954305 2 2v30c0 1.1045695-.8954305 2-2 2z"/></g><path id="Shape" d="m45 37c.0050792 2.3289078-.5036767 4.6302598-1.49 6.74-.2808623.6085285-.5981027 1.1995976-.95 1.77-2.3576501 3.7405425-6.1519322 6.3448161-10.49 7.2-.8964133.1748609-1.8067626.2685733-2.72.28-.11.01-.23.01-.35.01-4.7789417.0003246-9.3082041-2.1341133-12.35-5.82-.13-.15-.25-.3-.37-.46-1.9459636-2.5384764-3.0788723-5.6060445-3.25-8.8-.02-.3-.03-.61-.03-.92 0-.46.02-.93.06-1.38.4350203-5.0405954 3.2270079-9.5789657 7.53-12.24.6678613-.4132028 1.3666006-.7742738 2.09-1.08 1.4514208-.6277079 2.9883138-1.0355238 4.56-1.21.4849597-.0518479.9722788-.0785503 1.46-.08.1-.01.2-.01.3-.01 3.5122784-.0037208 6.9280992 1.148943 9.72 3.28.22.17.43.34.64.52.5205271.4372253 1.0084871.9118164 1.46 1.42 1.8035474 1.9624474 3.0799959 4.3501974 3.71 6.94.1775618.7067335.3045499 1.4252188.38 2.15.060159.5613219.090202 1.1254636.09 1.69z" fill="#e57e25"/><path id="Shape" d="m42 34c-.0043153 6.0856041-3.4582671 11.6426464-8.9132234 14.3404319-5.4549563 2.6977856-11.9677287 2.0698541-16.8067766-1.6204319-4.8600889-6.3745658-4.2571223-15.3608483 1.4110147-21.0289853s14.6544195-6.2711036 21.0289853-1.4110147c2.1339937 2.7903383 3.2870038 6.2071852 3.28 9.72z" fill="#f29c1f"/><path id="Shape" d="m41.88 42.63c.4648205.4738671 1.0187859.8511074 1.63 1.11-.2808623.6085285-.5981027 1.1995976-.95 1.77-.773114-.3574189-1.4772097-.8482548-2.08-1.45-2.23-2.21-3.58-5.94-3.64-10.01-.66-.05-1.32-.1-1.99-.12.08 1.08.12 2.24.12 3.43 0 5.83-.93 11.18-2.55 14.66-.11.23-.22.46-.35.69-.8964133.1748609-1.8067626.2685733-2.72.28.5522435-.5075112.9829268-1.1330273 1.26-1.83 1.47-3.17 2.36-8.33 2.36-13.8 0-1.2-.06-2.36-.14-3.49-.17 0-.34-.02-.52-.02h-.12c-.74.01-1.48.05-2.22.07.01.2.03.39.03.59 0 6.52-4.82 12.09-11.8 14.3-.5543771-.5061848-1.072331-1.0508719-1.55-1.63 6.67-1.75 11.35-6.77 11.35-12.67 0-.16-.02-.32-.03-.48-.92.07-1.85.14-2.75.26-5.03.63-9.36 1.94-12.19 3.63-.02-.3-.03-.61-.03-.92 0-.46.02-.93.06-1.38 3.7546982-1.7695021 7.7813585-2.8919632 11.91-3.32.89-.11 1.81-.18 2.73-.25-1.0110699-3.7789402-3.6021818-6.9385662-7.11-8.67.6678613-.4132028 1.3666006-.7742738 2.09-1.08 3.5676052 2.1113087 6.115216 5.5912365 7.05 9.63.82-.03 1.63-.07 2.46-.08h.12c.12 0 .24.01.35.01-.7-6.29-2.49-10-3.96-10.85.1-.01.2-.01.3-.01.8709694-.0016819 1.7405907.0685568 2.6.21 1.67 2.57 2.66 6.79 3.08 10.71.75.03 1.5.07 2.24.13.1846876-2.5846151 1.0243965-5.0796518 2.44-7.25.5205271.4372253 1.0084871.9118164 1.46 1.42-1.0935403 1.8247313-1.7474516 3.8789029-1.91 6 .13.02.26.02.38.04 1.7621891.2013091 3.5116305.5017857 5.24.9.1775618.7067335.3045499 1.4252188.38 2.15-1.925005-.4818948-3.8790498-.8393013-5.85-1.07-.07 0-.15-.01-.21-.01.09 3.43 1.23 6.62 3.03 8.4z" fill="#d25627"/></g></g></svg>