<?xml version="1.0" encoding="iso-8859-1"?>
<!-- Generator: Adobe Illustrator 19.0.0, SVG Export Plug-In . SVG Version: 6.00 Build 0)  -->
<svg version="1.1" id="Capa_1" xmlns="http://www.w3.org/2000/svg" xmlns:xlink="http://www.w3.org/1999/xlink" x="0px" y="0px"
	 viewBox="0 0 512 512" style="enable-background:new 0 0 512 512;" xml:space="preserve">
<circle style="fill:#FF9500;" cx="256" cy="256" r="256"/>
<circle style="fill:#555A66;" cx="256" cy="256" r="173.67"/>
<circle style="fill:#EBF6FC;" cx="256" cy="256" r="142.33"/>
<rect x="214" y="41" style="fill:#707789;" width="84" height="41.33"/>
<polygon style="fill:#707789;" points="159.984,105.927 108.428,157.492 83.054,132.119 134.61,80.554 "/>
<path d="m177.979,221.00101l-8.33301,0c-14.24501,0 -25.834,11.58899 -25.834,25.83301l0,20.33301c0,14.24399 11.58899,25.83298 25.834,25.83298l8.33301,0c14.244,0 25.83299,-11.58899 25.83299,-25.83298l0,-20.33301c0,-14.24402 -11.58899,-25.83301 -25.83299,-25.83301zm5.83299,46.168c0,3.216 -2.61601,5.83301 -5.83299,5.83301l-8.33301,0c-3.21701,0 -5.834,-2.617 -5.834,-5.83301l0,-20.33301c0,-3.21698 2.61699,-5.83298 5.834,-5.83298l8.33301,0c3.217,0 5.83299,2.61697 5.83299,5.83298l0,20.33301z"/>
<path d="m274.31299,221.00101l-8.33301,0c-14.24399,0 -25.83299,11.58899 -25.83299,25.83301l0,20.33301c0,14.24399 11.589,25.83298 25.83299,25.83298l8.33301,0c14.245,0 25.83401,-11.58899 25.83401,-25.83298l0,-20.33301c0,-14.24402 -11.58899,-25.83301 -25.83401,-25.83301zm5.83401,46.168c0,3.216 -2.617,5.83301 -5.83401,5.83301l-8.33298,0c-3.21701,0 -5.83301,-2.617 -5.83301,-5.83301l0,-20.33301c0,-3.21698 2.616,-5.83298 5.83301,-5.83298l8.33298,0c3.21701,0 5.83401,2.61697 5.83401,5.83298l0,20.33301z"/>
<path d="m335.996,221.00101c-14.245,0 -25.83401,11.58899 -25.83401,25.83301l0,20.33301c0,14.24399 11.58902,25.83298 25.83401,25.83298l8.33301,0c14.24399,0 25.83298,-11.58899 25.83298,-25.83298l0,-20.33301c0,-14.245 -11.58899,-25.83301 -25.83298,-25.83301l-8.33301,0zm14.16599,25.83398l0,20.33301c0,3.216 -2.616,5.83298 -5.83301,5.83298l-8.33298,0c-3.21701,0 -5.83401,-2.61697 -5.83401,-5.83298l0,-20.33301c0,-3.21701 2.617,-5.83301 5.83401,-5.83301l8.33298,0c3.21701,0.00003 5.83301,2.61603 5.83301,5.83301z"/>
<path d="m221.659,229.672c-2.64,0 -5.22,1.06 -7.08,2.92001c-1.86,1.87 -2.92,4.44 -2.92,7.07999c0,2.63 1.06,5.20999 2.92,7.07001c1.86,1.85999 4.44,2.92999 7.08,2.92999c2.63,0 5.21001,-1.07001 7.07001,-2.92999c1.85899,-1.87 2.92001,-4.44 2.92001,-7.07001c0,-2.63 -1.061,-5.20999 -2.92001,-7.07999c-1.86,-1.86002 -4.43999,-2.92001 -7.07001,-2.92001z"/>
<path d="m221.659,266.00201c-2.64,0 -5.22,1.07001 -7.08,2.92999c-1.86,1.86002 -2.92,4.44 -2.92,7.07001c0,2.63 1.06,5.20999 2.92,7.07001c1.86,1.85999 4.44,2.92999 7.08,2.92999c2.63,0 5.21001,-1.07001 7.07001,-2.92999c1.85899,-1.86002 2.92001,-4.44 2.92001,-7.07001c0,-2.63 -1.061,-5.20999 -2.92001,-7.07001c-1.86,-1.86002 -4.43999,-2.92999 -7.07001,-2.92999z"/>
<g>
</g>
<g>
</g>
<g>
</g>
<g>
</g>
<g>
</g>
<g>
</g>
<g>
</g>
<g>
</g>
<g>
</g>
<g>
</g>
<g>
</g>
<g>
</g>
<g>
</g>
<g>
</g>
<g>
</g>
</svg>
