<?xml version="1.0" encoding="iso-8859-1"?>
<!-- Generator: Adobe Illustrator 19.0.0, SVG Export Plug-In . SVG Version: 6.00 Build 0)  -->
<svg version="1.1" id="Capa_1" xmlns="http://www.w3.org/2000/svg" xmlns:xlink="http://www.w3.org/1999/xlink" x="0px" y="0px"
	 viewBox="0 0 512 512" style="enable-background:new 0 0 512 512;" xml:space="preserve">
<circle style="fill:#FF9500;" cx="256" cy="256" r="256"/>
<circle style="fill:#555A66;" cx="256" cy="256" r="173.67"/>
<circle style="fill:#EBF6FC;" cx="256" cy="256" r="142.33"/>
<path style="fill:#FFE733;" d="M398.333,256c0-78.609-63.725-142.333-142.333-142.333V256H398.333z"/>
<circle style="fill:#AFB4C8;" cx="256" cy="256" r="24.25"/>
<rect x="214" y="41" style="fill:#707789;" width="84" height="41.33"/>
<path stroke="null" transform="rotate(-90 256.9927062988282,349.7376403808594) " id="svg_4" fill="#FF525D" d="m343.64751,258.10202l-38.96631,0l0,346.873c-36.19085,-5.695 -69.10138,-27.167 -95.38484,-59.559l0,-287.314l-38.96562,0c-4.03973,0 -7.39268,-2.456 -9.69783,-6.165c-4.27073,-6.855 -4.9575,-18.004 0.18051,-25.851l79.35596,-121.124c9.14177,-13.949 24.50532,-13.949 33.64018,0l0.00692,0.01l79.35596,121.114c7.91969,12.089 1.99393,32.016 -9.52493,32.016z"/>
<polygon style="fill:#707789;" points="159.984,105.927 108.428,157.492 83.054,132.119 134.61,80.554 "/>
<g>
</g>
<g>
</g>
<g>
</g>
<g>
</g>
<g>
</g>
<g>
</g>
<g>
</g>
<g>
</g>
<g>
</g>
<g>
</g>
<g>
</g>
<g>
</g>
<g>
</g>
<g>
</g>
<g>
</g>
</svg>
