<svg height="512" viewBox="0 0 57 59" width="512" xmlns="http://www.w3.org/2000/svg"><g id="Page-1" fill="none" fill-rule="evenodd"><g id="035---Blocking-Ball" transform="translate(-1)"><g fill-rule="nonzero"><path id="Shape" d="m56.54 56.01-4.29 2.56c-1.4227493.849123-3.2642202.3887552-4.12-1.03l-3.18-5.32c-.602804-1.007725-1.4899488-1.8148528-2.55-2.32-1.062017-.5022157-1.9499292-1.3100417-2.55-2.32l-.36-.59c-.7684535-1.2823641-1.0721277-2.7901418-.86-4.27.2405377-1.4868171-.0346949-3.0111822-.78-4.32l-.55-.91-.2-.34.99-.99c.661701-.656997 1.1289068-1.4841242 1.35-2.39l2.85-11.2.56.3c.6260723.3311176 1.1748092.7912386 1.61 1.35.1411924.1693271.2682836.3499305.38.54l7.86 13.15c.6982679 1.1629569 1.0680602 2.4935181 1.07 3.85.001639.260552-.0117164.5209825-.04.78-.1689197 1.6129877.1889232 3.2373139 1.02 4.63l2.82 4.72c.8508852 1.4224887.3901875 3.2652794-1.03 4.12z" fill="#fdd7ad"/><path id="Shape" d="m36.3 23.92-.01.03-1.56 2.8-.98 1.74-.61 1.1c-.1407522.276043-.3228532.5289611-.54.75l-1.29 1.28c-.0535556-1.499489-1.2795867-2.6902386-2.78-2.7-.9308234-.0742383-1.8476381.2618053-2.51.92l-2.86 2.86c-.4774891.4781027-1.0361843.8674963-1.65 1.15-.73892.3551763-1.5342082.5785339-2.35.66-1.4865824.1583202-2.873828.821939-3.93 1.88l-.17.17c-.977862-.2111826-1.9349753-.5090256-2.86-.89-1.9077661-.7753896-3.6670332-1.8749315-5.2-3.25-.56710383-.4987118-1.09841571-1.0367068-1.59-1.61-.21-.23-.4-.47-.59-.71-2.22382899-2.8465203-3.54079407-6.2957146-3.78-9.9-.05500167-.7556672-.05500167-1.5143328 0-2.27.10485596-1.9657014.54099086-3.8995709 1.29-5.72 1.4114318-3.47799736 3.88138557-6.42374959 7.06-8.42.6637411-.41994915 1.3553452-.79415041 2.07-1.12 2.1460573-.99365674 4.4670004-1.5543531 6.83-1.65.59-.02 1.2-.02 1.8.02.47.03.94.07 1.41.14 3.1475989.4494229 6.1228075 1.71466227 8.63 3.67.26.21.51.42.76.64s.49.45.73.68.48.48.71.74c2.1145846 2.32904911 3.5771519 5.1748463 4.24 8.25.1586615.7053897.2722248 1.4201705.34 2.14.214063 2.2253938.0071235 4.4711959-.61 6.62z" fill="#e57e25"/><path id="Shape" d="m34 16c.004751 4.8703665-1.9695613 9.5336418-5.47 12.92-3.3627362 3.2497256-7.8536104 5.0704472-12.53 5.08-4.061181.005911-8.00365823-1.3693718-11.18-3.9-5.58740871-7.17632-4.94789946-17.3921897 1.49085163-23.81567704 6.43875107-6.42348735 16.65610977-7.03874832 23.81914837-1.43432296 2.5114851 3.17334575 3.8754338 7.1030689 3.87 11.15z" fill="#f29c1f"/><path id="Shape" d="m44.316 14.159c-.4647966-.000524-.8679562-.3212285-.973-.774-1.0071282-4.33760994-3.1496813-8.32935763-6.208-11.566-.3688237-.40246912-.3467211-1.02635605.0496591-1.40171603.3963801-.37535999 1.0205452-.36346901 1.4023409.02671603 3.301056 3.49499635 5.6133938 7.80491801 6.7 12.488.1247432.5379132-.2101178 1.0751234-.748 1.2-.0731405.0170247-.1479099.0260775-.223.027z" fill="#d25627"/><path id="Shape" d="m39.549 12.173c-.4142568.0001153-.7856961-.2551995-.934-.642-.7480835-1.94569664-1.776994-3.77138957-3.054-5.419-.316431-.4375567-.2283352-1.04729799.1990067-1.37739394.4273419-.33009594 1.0395619-.26130654 1.3829933.15539394 1.3966589 1.80115368 2.5216279 3.7973925 3.339 5.925.1973158.515271-.0599952 1.0929903-.575 1.291-.1141115.0444614-.2355328.0671855-.358.067z" fill="#d25627"/></g><path id="Shape" d="m28.92 34.02h-.01" stroke="#000" stroke-linecap="round" stroke-linejoin="round" stroke-width="2"/><path id="Shape" d="m33.84 26.14c.2756668.2323929.5738066.4367359.89.61l-.98 1.74c-.4221511-.2305162-.820719-.5018103-1.19-.81-2.82-2.35-4.57-6.85-4.62-11.79-.83-.07-1.65-.12-2.49-.15.08 1.24.13 2.59.13 3.99.0421775 3.9839136-.39088 7.9586433-1.29 11.84l-1.13 1.13c-.4774891.4781027-1.0361843.8674963-1.65 1.15 1.4781485-4.5569998 2.1779431-9.3304783 2.07-14.12 0-1.41-.06-2.76-.15-4.05-.24 0-.47-.02-.71-.02h-.13c-.88 0-1.75.03-2.62.06.01.28.03.55.03.8 0 7.04-5.3 13.33-13 15.9-.56710383-.4987118-1.09841571-1.0367068-1.59-1.61 7.41-2.08 12.59-7.84 12.59-14.29 0-.23-.03-.46-.04-.68-1.09.08-2.18.18-3.23.31-5.68.72-10.49 2.15-13.69 4.05-.05500167-.7556672-.05500167-1.5143328 0-2.27 4.23421874-2.0085995 8.77885241-3.2833962 13.44-3.77 1.05-.13 2.13-.23 3.21-.31-1.1553432-4.40936373-4.1904226-8.08802633-8.3-10.06.6637411-.41994915 1.3553452-.79415041 2.07-1.12 4.1846211 2.36057807 7.1799652 6.37615458 8.25 11.06.95-.04 1.91-.07 2.88-.07h.13c.18 0 .36.01.54.01-.77-6.94-2.72-11.21-4.39-12.37-.1770704-.12382684-.3729047-.21836753-.58-.28.59-.02 1.2-.02 1.8.02.47.03.94.07 1.41.14 1.83 2.48 3.18 6.93 3.77 12.53.92.04 1.83.09 2.73.16.1973307-3.001368 1.1952674-5.89503905 2.89-8.38.25.22.49.45.73.68s.48.48.71.74c-1.3656095 2.14578102-2.1670668 4.601749-2.33 7.14.18.03.37.04.56.06 2.0218831.2339631 4.0285601.5845473 6.01 1.05.1586615.7053897.2722248 1.4201705.34 2.14-2.1683641-.542279-4.3696659-.943123-6.59-1.2-.12-.02-.25-.02-.37-.03.08 4.28 1.55 8.12 3.89 10.07z" fill="#d25627" fill-rule="nonzero"/><path id="Shape" d="m42.94 20-.65 2.57-2.85 11.2c-.2210932.9058758-.688299 1.733003-1.35 2.39l-.99.99-9.84 9.84c-1.1472171 1.1461307-2.6347652 1.8899047-4.24 2.12-1.6089186.2276085-3.1003973.9715931-4.25 2.12l-3.89 3.89c-1.1712702 1.1698135-3.0687298 1.1698135-4.24 0l-3.53-3.53c-.56634626-.5621155-.88487435-1.3270514-.88487435-2.125s.31852809-1.5628845.88487435-2.125l4.38-4.38c.8311054-.8305138 1.398194-1.8881514 1.63-3.04.2280992-1.1510222.791774-2.2087822 1.62-3.04l.49-.49c1.056172-1.058061 2.4434176-1.7216798 3.93-1.88 1.5008191-.1291793 2.912291-.7678703 4-1.81l2.86-2.86c1.2089213-1.1699382 3.1044131-1.2431731 4.4-.17.5623606.4882045.8867484 1.195297.89 1.94v.01l1.29-1.28c.0390773-.0348414.0727765-.0752805.1-.12.173259-.1901165.3211566-.401879.44-.63l2.24-4.01.91-1.63.01-.03 2.94-5.26c.4496993-.8988288 1.5012182-1.3184694 2.4462028-.9762317.9449847.3422377 1.483939 1.3378874 1.2537972 2.3162317z" fill="#fdd7ad" fill-rule="nonzero"/><path id="Shape" d="m30.42 29.67c.5623606.4882045.8867484 1.195297.89 1.94v.01l-3.03 3.02c-.7721962.7691992-1.2978642 1.7509103-1.51 2.82l-.14.64c-.099165.4616905-.5077811.7910852-.98.79-.0703556-.0021696-.1404996-.00885-.21-.02-.5379393-.1195113-.8778162-.6516869-.76-1.19l.13-.63c.289887-1.4482744 1.0033875-2.7778218 2.05-3.82z" fill="#f9c795" fill-rule="nonzero"/><path id="Shape" d="m45.43 37.46c-.1654027.3472838-.5153406.5689111-.9.57-.1492607.0014682-.2967038-.0328209-.43-.1l-.58-.28c-1.0120408-.4845528-1.9035843-1.1882231-2.61-2.06-.3513601.7369272-.8285033 1.406958-1.41 1.98l-1.37 1.37c-.0814087-.1859368-.1749434-.3663251-.28-.54l-.55-.91-.2-.34.99-.99c.661701-.656997 1.1289068-1.4841242 1.35-2.39l.09-.36.7-2.73 2.06-8.11.56.3c.4424129.23474.8469496.5347714 1.2.89l-2.38 9.34.36.6c.558193.933094 1.3790733 1.6809299 2.36 2.15l.57.28c.4959259.2384976.7059653.8328642.47 1.33z" fill="#f9c795" fill-rule="nonzero"/></g></g></svg>