<svg height="512" viewBox="0 0 58 37" width="512" xmlns="http://www.w3.org/2000/svg"><g id="Page-1" fill="none" fill-rule="evenodd"><g id="015---Scoreboard" fill-rule="nonzero"><rect id="Rectangle-path" fill="#3b97d3" height="37" rx="4" width="58"/><rect id="Rectangle-path" fill="#35495e" height="17" rx="2.5" width="22" x="4" y="15"/><rect id="Rectangle-path" fill="#35495e" height="17" rx="2.5" width="22" x="32" y="15"/><path id="Shape" d="m23.5 33h-17c-1.93299662 0-3.5-1.5670034-3.5-3.5v-12c0-1.9329966 1.56700338-3.5 3.5-3.5h17c1.9329966 0 3.5 1.5670034 3.5 3.5v12c0 1.9329966-1.5670034 3.5-3.5 3.5zm-17-17c-.82842712 0-1.5.6715729-1.5 1.5v12c0 .8284271.67157288 1.5 1.5 1.5h17c.8284271 0 1.5-.6715729 1.5-1.5v-12c0-.8284271-.6715729-1.5-1.5-1.5z" fill="#f5efca"/><path id="Shape" d="m11 29h-1c-1.65685425 0-3-1.3431458-3-3v-5c0-1.6568542 1.34314575-3 3-3h1c1.6568542 0 3 1.3431458 3 3v5c0 1.6568542-1.3431458 3-3 3zm-1-9c-.55228475 0-1 .4477153-1 1v5c0 .5522847.44771525 1 1 1h1c.5522847 0 1-.4477153 1-1v-5c0-.5522847-.4477153-1-1-1z" fill="#f0c419"/><path id="Shape" d="m20 29h-1c-1.6568542 0-3-1.3431458-3-3v-5c0-1.6568542 1.3431458-3 3-3h1c1.6568542 0 3 1.3431458 3 3v5c0 1.6568542-1.3431458 3-3 3zm-1-9c-.5522847 0-1 .4477153-1 1v5c0 .5522847.4477153 1 1 1h1c.5522847 0 1-.4477153 1-1v-5c0-.5522847-.4477153-1-1-1z" fill="#f0c419"/><path id="Shape" d="m51.5 33h-17c-1.9329966 0-3.5-1.5670034-3.5-3.5v-12c0-1.9329966 1.5670034-3.5 3.5-3.5h17c1.9329966 0 3.5 1.5670034 3.5 3.5v12c0 1.9329966-1.5670034 3.5-3.5 3.5zm-17-17c-.8284271 0-1.5.6715729-1.5 1.5v12c0 .8284271.6715729 1.5 1.5 1.5h17c.8284271 0 1.5-.6715729 1.5-1.5v-12c0-.8284271-.6715729-1.5-1.5-1.5z" fill="#f5efca"/><path id="Shape" d="m39 29h-1c-1.6568542 0-3-1.3431458-3-3v-5c0-1.6568542 1.3431458-3 3-3h1c1.6568542 0 3 1.3431458 3 3v5c0 1.6568542-1.3431458 3-3 3zm-1-9c-.5522847 0-1 .4477153-1 1v5c0 .5522847.4477153 1 1 1h1c.5522847 0 1-.4477153 1-1v-5c0-.5522847-.4477153-1-1-1z" fill="#f0c419"/><path id="Shape" d="m48 29h-1c-1.6568542 0-3-1.3431458-3-3v-5c0-1.6568542 1.3431458-3 3-3h1c1.6568542 0 3 1.3431458 3 3v5c0 1.6568542-1.3431458 3-3 3zm-1-9c-.5522847 0-1 .4477153-1 1v5c0 .5522847.4477153 1 1 1h1c.5522847 0 1-.4477153 1-1v-5c0-.5522847-.4477153-1-1-1z" fill="#f0c419"/><circle id="Oval" cx="29" cy="21" fill="#f5efca" r="1"/><circle id="Oval" cx="29" cy="26" fill="#f5efca" r="1"/><rect id="Rectangle-path" fill="#35495e" height="5" rx="2.5" width="18" x="6" y="5"/><rect id="Rectangle-path" fill="#35495e" height="5" rx="2.5" width="18" x="34" y="5"/><g fill="#f5efca"><path id="Shape" d="m21.5 11h-13c-1.93299662 0-3.5-1.56700338-3.5-3.5s1.56700338-3.5 3.5-3.5h13c1.9329966 0 3.5 1.56700338 3.5 3.5s-1.5670034 3.5-3.5 3.5zm-13-5c-.82842712 0-1.5.67157288-1.5 1.5s.67157288 1.5 1.5 1.5h13c.8284271 0 1.5-.67157288 1.5-1.5s-.6715729-1.5-1.5-1.5z"/><path id="Shape" d="m49.5 11h-13c-1.9329966 0-3.5-1.56700338-3.5-3.5s1.5670034-3.5 3.5-3.5h13c1.9329966 0 3.5 1.56700338 3.5 3.5s-1.5670034 3.5-3.5 3.5zm-13-5c-.8284271 0-1.5.67157288-1.5 1.5s.6715729 1.5 1.5 1.5h13c.8284271 0 1.5-.67157288 1.5-1.5s-.6715729-1.5-1.5-1.5z"/></g></g></g></svg>