<?xml version="1.0" encoding="iso-8859-1"?>
<!-- Generator: Adobe Illustrator 19.0.0, SVG Export Plug-In . SVG Version: 6.00 Build 0)  -->
<svg version="1.1" id="Capa_1" xmlns="http://www.w3.org/2000/svg" xmlns:xlink="http://www.w3.org/1999/xlink" x="0px" y="0px"
	 viewBox="0 0 512 512" style="enable-background:new 0 0 512 512;" xml:space="preserve">
  <path stroke="null" transform="rotate(-90 256.9927062988282,349.7376403808594) " id="svg_4" fill="#4BC999" d="m343.64751,258.10202l-38.96631,0l0,346.873c-36.19085,-5.695 -69.10138,-27.167 -95.38484,-59.559l0,-287.314l-38.96562,0c-4.03973,0 -7.39268,-2.456 -9.69783,-6.165c-4.27073,-6.855 -4.9575,-18.004 0.18051,-25.851l79.35596,-121.124c9.14177,-13.949 24.50532,-13.949 33.64018,0l0.00692,0.01l79.35596,121.114c7.91969,12.089 1.99393,32.016 -9.52493,32.016z"/>
  <path stroke="null" transform="rotate(-90 256.00000000000006,156.12512207031253) " id="svg_3" fill="#FF525D" d="m352.17977,247.04399l-79.36299,121.124c-9.13418,13.939 -24.49844,13.939 -33.64023,0l-79.35608,-121.124c-7.92039,-12.089 -1.99462,-32.016 9.51733,-32.016l38.96636,0l0,-281.4c35.38863,1.536 68.16157,18.098 95.38429,45.422l0,235.979l38.96636,0c11.51956,-0.001 17.44533,19.925 9.52494,32.015z"/>	<g>
</g>
<g>
</g>
<g>
</g>
<g>
</g>
<g>
</g>
<g>
</g>
<g>
</g>
<g>
</g>
<g>
</g>
<g>
</g>
<g>
</g>
<g>
</g>
<g>
</g>
<g>
</g>
<g>
</g>
</svg>
