<svg height="512" viewBox="0 0 58 58" width="512" xmlns="http://www.w3.org/2000/svg"><g id="Page-1" fill="none" fill-rule="evenodd"><g id="034---Ball-and-Vest" fill-rule="nonzero"><path id="Shape" d="m32.01.47c-.0175314-.01670897-.0378335-.03024372-.06-.04-.457116-.28122302-.9833051-.43007914-1.52-.43h-3.27c-.2570982-.00297213-.4951326.13524138-.62.36-.54.91-2.38 3.26-7.04 3.26s-6.5-2.35-7.04-3.26c-.1248674-.22475862-.3629018-.36297213-.62-.36h-3.27c-.55337053.00044043-1.09492309.16012901-1.56.46-.06890573.03978717-.13566511.08318077-.2.13-2.21 1.4-6.81 5.04-6.81 20.41v18.1c-.00159275.767883.30205767 1.504919.84409549 2.0488324.54203783.5439134 1.27802063.8501079 2.04590451.8511676h22.12c-.01-.17-.01-.33-.01-.5.0011125-8.1043167 5.8877165-15.0080445 13.89-16.29.07-1.49.11-2.89.11-4.21 0-15.83-4.88-19.32-6.99-20.53z" fill="#285680"/><path id="Shape" d="m25.01 42h-22.12c-.76788388-.0010597-1.50386668-.3072542-2.04590451-.8511676-.54203782-.5439134-.84568824-1.2809494-.84409549-2.0488324v-18.1l.85-.67c4.65-4.45 4.54-11.91 4.84-17.58.04800249-.84683374.45554489-1.63280836 1.12-2.16.06433489-.04681923.13109427-.09021283.2-.13.46507691-.29987099 1.00662947-.45955957 1.56-.46h3.21c-.1455501.92289048-.2191052 1.855703-.22 2.79 0 6.46 3.55 11.69 7.94 11.69s7.94-5.23 7.94-11.69c-.0008948-.934297-.0744499-1.86710952-.22-2.79h3.21c.5366949-.00007914 1.062884.14877698 1.52.43.0221665.00975628.0424686.02329103.06.04.7704358.51078839 1.2528255 1.35682573 1.3 2.28.02.41.04.83.06 1.24.06 1.36.12 2.71.23 4.06.099898 1.39920391.2801957 2.7915034.54 4.17.2581255 1.3621332.6603878 2.6929509 1.2 3.97.5602867 1.3449788 1.3485246 2.583155 2.33 3.66.2351203.2487831.4856119.4825753.75.7.19.15.4.29.58.45 0 1.32-.04 2.72-.11 4.21z" fill="#2980ba"/><path id="Shape" d="m31.95.43c-.07-.04-.13-.08-.19-.11" fill="#d25627"/><path id="Shape" d="m31 18h-4c-.5522847 0-1-.4477153-1-1s.4477153-1 1-1h4c.5522847 0 1 .4477153 1 1s-.4477153 1-1 1z" fill="#f9eab0"/><path id="Shape" d="m58 41.5c.0006322 7.8450008-5.5225314 14.6057544-13.21 16.17-.8533132.1745441-1.7195979.2782307-2.59.31-.23.02-.47.02-.7.02-4.0268028.0083354-7.9151056-1.4693621-10.92-4.15-.5692458-.4892448-1.1007552-1.0207542-1.59-1.59-.19-.23-.38-.46-.56-.69-1.9744359-2.5607836-3.153224-5.6451051-3.39-8.87-.01-.23-.02-.46-.03-.7-.01-.17-.01-.33-.01-.5 0-.36.01-.72.04-1.07.338464-5.2426642 3.1532969-10.0107979 7.58-12.84.6657784-.4164619 1.3571496-.7905372 2.07-1.12 1.3397749-.5994465 2.7515018-1.0229645 4.2-1.26.5889182-.099467 1.1833553-.1629182 1.78-.19.27-.01.55-.02.83-.02.8233341-.0012258 1.6456136.058941 2.46.18 2.7730736.4139587 5.393406 1.5330231 7.61 3.25.26.2.52.41.77.64.5108958.4375692.9888564.9121874 1.43 1.42 1.8920641 2.0907865 3.2084049 4.6373202 3.82 7.39.171417.7025.2818275 1.418495.33 2.14.0570938.4912173.0838113.9854905.08 1.48z" fill="#e57e25"/><path id="Shape" d="m55 38.5c-.0002945 6.2880799-3.5746013 12.0293569-9.2169752 14.8048867s-12.3718088 2.1027475-17.3530248-1.7348867c-2.1208393-2.7494374-3.3179079-6.0991294-3.42-9.57-.01-.17-.01-.33-.01-.5.0011125-8.1043167 5.8877165-15.0080445 13.89-16.29.8628203-.141035 1.7357299-.2112691 2.61-.21 3.6445427-.0073491 7.1877016 1.1995064 10.07 3.43 2.2304936 2.8822984 3.4373491 6.4254573 3.43 10.07z" fill="#f29c1f"/><path id="Shape" d="m54.77 47.63c.4499836.459673.9782298.8355405 1.56 1.11-.2912899.5960022-.6185608 1.1737355-.98 1.73-.738389-.3581894-1.4111411-.8382437-1.99-1.42-2.3-2.27-3.69-6.12-3.75-10.33-.69-.05-1.39-.1-2.11-.13.08 1.12.12 2.32.12 3.55 0 6.02-.96 11.53-2.62 15.12-.07.14-.13.28-.21.41-.8533132.1745441-1.7195979.2782307-2.59.31.4130155-.4661392.747389-.9964083.99-1.57 1.52-3.28 2.43-8.62 2.43-14.27 0-1.24-.05-2.44-.14-3.61-.19 0-.37-.01-.57-.01h-.12c-.78 0-1.55.04-2.32.07.01.21.03.42.03.63 0 6.51-4.89 12.26-11.92 14.63-.5692458-.4892448-1.1007552-1.0207542-1.59-1.59 6.74-1.89 11.51-7.12 11.51-13.04 0-.17-.02-.35-.03-.52-.97.07-1.93.15-2.87.26-5.22.66-9.63 1.99-12.56 3.74-.01-.23-.02-.46-.03-.7-.01-.17-.01-.33-.01-.5 0-.36.01-.72.04-1.07 3.8773538-1.841483 8.0403685-3.0082092 12.31-3.45.93-.12 1.89-.19 2.85-.27-1.0507875-4.0128366-3.8269998-7.3530814-7.58-9.12.6657784-.4164619 1.3571496-.7905372 2.07-1.12 3.8334563 2.1554916 6.5707847 5.8379799 7.53 10.13.86-.04 1.71-.08 2.57-.08h.12c.14 0 .27.01.41.01-.59-5.36-2.07-9.7-3.83-11.12-.2316575-.2038617-.5156685-.3389401-.82-.39.27-.01.55-.02.83-.02.8233341-.0012258 1.6456136.058941 2.46.18 1.63 2.32 2.84 6.38 3.37 11.41.79.03 1.57.07 2.35.13.1833756-2.742648 1.1022387-5.385243 2.66-7.65.5108958.4375692.9888564.9121874 1.43 1.42-1.218802 1.9303677-1.9403006 4.1326564-2.1 6.41l.44.03c1.8426702.2161789 3.6720878.5333224 5.48.95.171417.7025.2818275 1.418495.33 2.14-1.9894394-.503204-4.0107569-.8707162-6.05-1.1-.08-.01-.17-.01-.25-.02.09 3.56 1.27 6.88 3.15 8.73z" fill="#d25627"/><path id="Shape" d="m9 39h-5c-.55228475 0-1-.4477153-1-1v-3c0-.5522847.44771525-1 1-1s1 .4477153 1 1v2h4c.55228475 0 1 .4477153 1 1s-.44771525 1-1 1z" fill="#fff"/></g></g></svg>